<mxfile host="Electron" modified="2023-05-22T12:04:30.989Z" agent="Mozilla/5.0 (X11; Linux x86_64) AppleWebKit/537.36 (KHTML, like Gecko) draw.io/21.2.8 Chrome/112.0.5615.165 Electron/24.2.0 Safari/537.36" etag="4DWgVFLsXES4wuiVYqhp" version="21.2.8" type="device">
  <diagram name="Page-1" id="52a04d89-c75d-2922-d76d-85b35f80e030">
    <mxGraphModel dx="1434" dy="3169" grid="1" gridSize="10" guides="1" tooltips="1" connect="1" arrows="1" fold="1" page="1" pageScale="1" pageWidth="3300" pageHeight="2339" background="none" math="0" shadow="0">
      <root>
        <mxCell id="0" />
        <mxCell id="1" parent="0" />
        <mxCell id="asWxoMHVygICe8BLjZU1-5" value="" style="rhombus;whiteSpace=wrap;html=1;" vertex="1" parent="1">
          <mxGeometry x="810" y="280" width="80" height="80" as="geometry" />
        </mxCell>
        <mxCell id="asWxoMHVygICe8BLjZU1-40" style="edgeStyle=orthogonalEdgeStyle;orthogonalLoop=1;jettySize=auto;html=1;exitX=1;exitY=0.5;exitDx=0;exitDy=0;entryX=0.5;entryY=0;entryDx=0;entryDy=0;curved=1;" edge="1" parent="1" source="asWxoMHVygICe8BLjZU1-28" target="asWxoMHVygICe8BLjZU1-33">
          <mxGeometry relative="1" as="geometry" />
        </mxCell>
        <mxCell id="asWxoMHVygICe8BLjZU1-52" style="edgeStyle=orthogonalEdgeStyle;orthogonalLoop=1;jettySize=auto;html=1;exitX=0.5;exitY=1;exitDx=0;exitDy=0;entryX=0.5;entryY=0;entryDx=0;entryDy=0;curved=1;" edge="1" parent="1" source="asWxoMHVygICe8BLjZU1-28" target="asWxoMHVygICe8BLjZU1-51">
          <mxGeometry relative="1" as="geometry">
            <Array as="points">
              <mxPoint x="520" y="-700" />
              <mxPoint x="485" y="-700" />
            </Array>
          </mxGeometry>
        </mxCell>
        <mxCell id="asWxoMHVygICe8BLjZU1-56" style="edgeStyle=orthogonalEdgeStyle;orthogonalLoop=1;jettySize=auto;html=1;exitX=0;exitY=0.5;exitDx=0;exitDy=0;entryX=0.5;entryY=0;entryDx=0;entryDy=0;curved=1;" edge="1" parent="1" source="asWxoMHVygICe8BLjZU1-28" target="asWxoMHVygICe8BLjZU1-55">
          <mxGeometry relative="1" as="geometry" />
        </mxCell>
        <mxCell id="asWxoMHVygICe8BLjZU1-28" value="NORMAL_ARRANCANDO" style="ellipse;whiteSpace=wrap;html=1;" vertex="1" parent="1">
          <mxGeometry x="440" y="-810" width="160" height="80" as="geometry" />
        </mxCell>
        <mxCell id="asWxoMHVygICe8BLjZU1-30" style="edgeStyle=orthogonalEdgeStyle;rounded=0;orthogonalLoop=1;jettySize=auto;html=1;exitX=0.5;exitY=1;exitDx=0;exitDy=0;entryX=0.5;entryY=0;entryDx=0;entryDy=0;" edge="1" parent="1" source="asWxoMHVygICe8BLjZU1-29" target="asWxoMHVygICe8BLjZU1-28">
          <mxGeometry relative="1" as="geometry" />
        </mxCell>
        <mxCell id="asWxoMHVygICe8BLjZU1-29" value="gestion_programas" style="rounded=1;whiteSpace=wrap;html=1;" vertex="1" parent="1">
          <mxGeometry x="400" y="-850" width="240" height="20" as="geometry" />
        </mxCell>
        <mxCell id="asWxoMHVygICe8BLjZU1-44" style="edgeStyle=orthogonalEdgeStyle;orthogonalLoop=1;jettySize=auto;html=1;exitX=0.5;exitY=1;exitDx=0;exitDy=0;entryX=0.5;entryY=0;entryDx=0;entryDy=0;curved=1;" edge="1" parent="1" source="asWxoMHVygICe8BLjZU1-33" target="asWxoMHVygICe8BLjZU1-41">
          <mxGeometry relative="1" as="geometry" />
        </mxCell>
        <mxCell id="asWxoMHVygICe8BLjZU1-46" style="edgeStyle=orthogonalEdgeStyle;orthogonalLoop=1;jettySize=auto;html=1;exitX=0;exitY=0.5;exitDx=0;exitDy=0;entryX=0.563;entryY=-0.012;entryDx=0;entryDy=0;entryPerimeter=0;curved=1;" edge="1" parent="1" source="asWxoMHVygICe8BLjZU1-33" target="asWxoMHVygICe8BLjZU1-42">
          <mxGeometry relative="1" as="geometry" />
        </mxCell>
        <mxCell id="asWxoMHVygICe8BLjZU1-33" value="ESPERANDO_FIN_ARRANQUE" style="ellipse;whiteSpace=wrap;html=1;" vertex="1" parent="1">
          <mxGeometry x="790" y="-620" width="190" height="80" as="geometry" />
        </mxCell>
        <mxCell id="asWxoMHVygICe8BLjZU1-49" style="edgeStyle=orthogonalEdgeStyle;orthogonalLoop=1;jettySize=auto;html=1;entryX=0.5;entryY=1;entryDx=0;entryDy=0;curved=1;" edge="1" parent="1" source="asWxoMHVygICe8BLjZU1-41" target="asWxoMHVygICe8BLjZU1-42">
          <mxGeometry relative="1" as="geometry" />
        </mxCell>
        <mxCell id="asWxoMHVygICe8BLjZU1-54" style="edgeStyle=orthogonalEdgeStyle;orthogonalLoop=1;jettySize=auto;html=1;exitX=0;exitY=0;exitDx=0;exitDy=0;entryX=1;entryY=0.5;entryDx=0;entryDy=0;curved=1;" edge="1" parent="1" source="asWxoMHVygICe8BLjZU1-41" target="asWxoMHVygICe8BLjZU1-51">
          <mxGeometry relative="1" as="geometry" />
        </mxCell>
        <mxCell id="asWxoMHVygICe8BLjZU1-41" value="NORMAL_SIN_PROGRAMACION" style="ellipse;whiteSpace=wrap;html=1;" vertex="1" parent="1">
          <mxGeometry x="790" y="-390" width="190" height="80" as="geometry" />
        </mxCell>
        <mxCell id="asWxoMHVygICe8BLjZU1-53" style="edgeStyle=orthogonalEdgeStyle;orthogonalLoop=1;jettySize=auto;html=1;entryX=0.5;entryY=1;entryDx=0;entryDy=0;curved=1;" edge="1" parent="1" source="asWxoMHVygICe8BLjZU1-42" target="asWxoMHVygICe8BLjZU1-51">
          <mxGeometry relative="1" as="geometry" />
        </mxCell>
        <mxCell id="asWxoMHVygICe8BLjZU1-42" value="NORMAL_AUTO/AUTOMAN" style="ellipse;whiteSpace=wrap;html=1;" vertex="1" parent="1">
          <mxGeometry x="400" y="-400" width="190" height="80" as="geometry" />
        </mxCell>
        <mxCell id="asWxoMHVygICe8BLjZU1-47" value="nProgramacion &amp;gt; 0&lt;br&gt;" style="text;html=1;strokeColor=none;fillColor=none;align=center;verticalAlign=middle;whiteSpace=wrap;rounded=0;" vertex="1" parent="1">
          <mxGeometry x="620" y="-610" width="110" height="30" as="geometry" />
        </mxCell>
        <mxCell id="asWxoMHVygICe8BLjZU1-48" value="nProgramacion == 0" style="text;html=1;strokeColor=none;fillColor=none;align=center;verticalAlign=middle;whiteSpace=wrap;rounded=0;" vertex="1" parent="1">
          <mxGeometry x="890" y="-470" width="140" height="30" as="geometry" />
        </mxCell>
        <mxCell id="asWxoMHVygICe8BLjZU1-50" value="nProgramacion &amp;gt; 0&lt;br&gt;" style="text;html=1;strokeColor=none;fillColor=none;align=center;verticalAlign=middle;whiteSpace=wrap;rounded=0;" vertex="1" parent="1">
          <mxGeometry x="630" y="-400" width="110" height="30" as="geometry" />
        </mxCell>
        <mxCell id="asWxoMHVygICe8BLjZU1-51" value="UPGRADE_EN_PROGRESO" style="ellipse;whiteSpace=wrap;html=1;" vertex="1" parent="1">
          <mxGeometry x="160" y="-550" width="190" height="80" as="geometry" />
        </mxCell>
        <mxCell id="asWxoMHVygICe8BLjZU1-55" value="ARRANQUE_DE_FABRICA" style="ellipse;whiteSpace=wrap;html=1;" vertex="1" parent="1">
          <mxGeometry x="110" y="-760" width="190" height="80" as="geometry" />
        </mxCell>
      </root>
    </mxGraphModel>
  </diagram>
</mxfile>
